HIERARCHY
ROOT Hips
{
  OFFSET 40.9192 92.6879 18.85
  CHANNELS 6 Xposition Yposition Zposition Zrotation Xrotation Yrotation
  JOINT LeftUpLeg
  {
    OFFSET 8.64259 1.95398 -2.38835
    CHANNELS 3 Zrotation Xrotation Yrotation
    JOINT LeftLeg
    {
      OFFSET 43.7702 0 0
      CHANNELS 3 Zrotation Xrotation Yrotation
      JOINT LeftFoot
      {
        OFFSET 40.6238 0 0
        CHANNELS 3 Zrotation Xrotation Yrotation
        JOINT LeftToeBase
        {
          OFFSET 12.7242 0 0
          CHANNELS 3 Zrotation Xrotation Yrotation
          End Site
          {
            OFFSET 0 0 0
          }
        }
      }
    }
  }
  JOINT RightUpLeg
  {
    OFFSET -8.2249 1.95398 -2.59336
    CHANNELS 3 Zrotation Xrotation Yrotation
    JOINT RightLeg
    {
      OFFSET 43.5653 0 0
      CHANNELS 3 Zrotation Xrotation Yrotation
      JOINT RightFoot
      {
        OFFSET 40.6238 0 0
        CHANNELS 3 Zrotation Xrotation Yrotation
        JOINT RightToeBase
        {
          OFFSET 12.7242 0 0
          CHANNELS 3 Zrotation Xrotation Yrotation
          End Site
          {
            OFFSET 0 0 0
          }
        }
      }
    }
  }
  JOINT Spine
  {
    OFFSET 0.165834 0.87714 6.61349
    CHANNELS 3 Zrotation Xrotation Yrotation
    JOINT Spine1
    {
      OFFSET 7.38963 1.71661e-005 0
      CHANNELS 3 Zrotation Xrotation Yrotation
      JOINT Spine2
      {
        OFFSET 11.9445 1.14441e-005 0
        CHANNELS 3 Zrotation Xrotation Yrotation
        JOINT Spine3
        {
          OFFSET 14.7254 4.19617e-005 0
          CHANNELS 3 Zrotation Xrotation Yrotation
          JOINT Spine4
          {
            OFFSET 10.9679 0 0
            CHANNELS 3 Zrotation Xrotation Yrotation
            JOINT RightShoulder
            {
              OFFSET 2.46616 -1.6653 3.69651
              CHANNELS 3 Zrotation Xrotation Yrotation
              JOINT RightArm
              {
                OFFSET 13.0012 0 0
                CHANNELS 3 Zrotation Xrotation Yrotation
                JOINT RightForeArm
                {
                  OFFSET 28.7848 1.52588e-005 0
                  CHANNELS 3 Zrotation Xrotation Yrotation
                  JOINT RightHand
                  {
                    OFFSET 26.5688 1.52588e-005 0
                    CHANNELS 3 Zrotation Xrotation Yrotation
                    End Site
                    {
                      OFFSET 0 0 0
                    }
                  }
                }
              }
            }
            JOINT LeftShoulder
            {
              OFFSET 2.38034 -1.29275 -3.7523
              CHANNELS 3 Zrotation Xrotation Yrotation
              JOINT LeftArm
              {
                OFFSET 16.3182 6.10351e-005 0
                CHANNELS 3 Zrotation Xrotation Yrotation
                JOINT LeftForeArm
                {
                  OFFSET 27.0901 0 0
                  CHANNELS 3 Zrotation Xrotation Yrotation
                  JOINT LeftHand
                  {
                    OFFSET 24.5451 1.52588e-005 0
                    CHANNELS 3 Zrotation Xrotation Yrotation
                    End Site
                    {
                      OFFSET 0 0 0
                    }
                  }
                }
              }
            }
            JOINT Neck
            {
              OFFSET 5.0226 -0.0266342 0
              CHANNELS 3 Zrotation Xrotation Yrotation
              JOINT Head
              {
                OFFSET 6.69363 2.86102e-005 0
                CHANNELS 3 Zrotation Xrotation Yrotation
                End Site
                {
                  OFFSET 0 0 0
                }
              }
            }
          }
        }
      }
    }
  }
}
MOTION
Frames:	14
Frame Time:	0.0416667
-12.74 97.7395 -157.717 -121.826 -85.4587 -122.805 -170.251 1.40528 92.8501 -8.97734 12.3443 -2.73216 61.1681 1.78907 6.64964 30.8453 1.53897 1.26657 171.821 2.08284 86.6245 -12.6839 -5.55113 -0.608615 66.1976 -3.07676 -1.65694 29.6427 0.19859 -2.7329 0.179612 6.96338 -89.6863 12.9456 0.507191 0.565859 1.27464 0.5316 0.542986 -21.2599 0.313676 0.692127 -1.24726 0.313688 0.692131 93.6245 -49.2909 -95.3665 31.8352 -9.0519 2.37141 -7.3151 -26.336 -40.3797 -2.16924 -0.818321 11.4748 -98.3931 -49.3817 66.1221 -23.5067 16.8268 0.67191 1.48927 13.5721 -28.5769 9.11476 0.762984 4.10057 10.3718 1.93936 -0.35742 -2.27731 2.01721 1.87765 
-12.739 97.7162 -157.715 -122.06 -85.427 -123.094 -170.332 1.332 92.8102 -9.03522 11.6487 -2.62621 61.6273 2.09451 5.82043 30.2219 1.02932 1.34723 171.852 2.13459 86.572 -12.8388 -5.56109 -0.670875 66.2587 -3.08548 -1.65948 29.7619 0.194534 -2.60474 0.190028 6.96848 -89.6918 12.9354 0.525186 0.552776 1.26443 0.549012 0.529114 -21.2702 0.334787 0.685053 -1.25753 0.334782 0.685055 93.6547 -49.3162 -95.3151 31.6653 -9.01268 2.24167 -7.1362 -26.1084 -40.2766 -2.28199 -0.827143 11.4651 -98.5701 -49.4372 65.8826 -23.5369 16.8489 0.714467 1.15689 13.0995 -28.4035 9.17715 0.798967 4.40919 10.5272 1.89123 -0.069086 -2.47213 1.90174 1.56599 
-12.7167 97.7 -157.733 -114.449 -85.4124 -115.555 -170.391 1.74955 92.6537 -8.87421 11.6289 -2.7018 61.4423 1.98879 6.24733 30.266 1.08259 1.13005 171.959 2.72022 86.6258 -12.8146 -5.57922 -0.714702 66.2815 -3.11436 -1.67769 29.6559 0.182264 -2.43771 0.22933 6.9202 -89.7055 13.0319 0.596863 0.516165 1.36102 0.619 0.489386 -21.1739 0.414136 0.671679 -1.16127 0.414141 0.671681 93.659 -48.9956 -95.3625 31.8181 -8.82668 2.73926 -6.77317 -27.447 -39.8807 -3.02256 -0.911313 11.0099 -98.8098 -49.7355 65.6377 -23.2613 17.1021 0.525317 0.683825 12.7289 -28.0997 9.58219 0.821522 4.32371 10.6041 1.8671 0.120833 -2.6388 1.83704 1.56645 
-12.6876 97.6998 -157.77 -119.171 -85.6308 -119.953 -170.233 1.95419 93.0073 -9.4815 12.263 -2.70721 61.8233 2.19767 6.35369 30.0766 0.907339 1.40056 172.045 2.23756 86.8987 -12.4468 -5.16747 -0.632707 66.1479 -3.07481 -1.66022 29.515 0.187285 -2.59293 0.188178 6.94141 -89.739 12.99 0.498997 0.461338 1.31903 0.518819 0.438926 -21.2159 0.337277 0.589969 -1.20323 0.337281 0.589978 93.6155 -49.0125 -95.4274 31.8868 -8.88073 2.8369 -6.78919 -27.665 -39.7549 -4.31341 -0.924373 8.24481 -98.574 -49.6085 65.9371 -23.4453 17.1435 0.434198 0.749029 13.0171 -27.9163 9.40162 0.785413 4.10944 10.8134 1.89399 -0.0952864 -3.1591 1.90267 1.71218 
-12.6671 97.6978 -157.815 -121.377 -85.6177 -122.132 -170.247 1.94053 93.0144 -9.77599 11.8277 -2.63494 62.0892 2.2782 5.69618 30.1543 0.952032 1.62026 172.021 2.10089 86.8806 -12.4593 -5.12038 -0.618165 66.2269 -3.10612 -1.67809 29.3668 0.180615 -2.55114 0.190263 6.95806 -89.7548 12.9567 0.495437 0.430179 1.28579 0.513894 0.407958 -21.2492 0.34325 0.559197 -1.23657 0.343246 0.559195 93.5028 -48.9275 -95.6184 31.9212 -8.78598 3.03072 -6.97531 -27.7146 -39.9891 -3.86307 -0.871366 7.81614 -98.7665 -49.7641 65.7108 -23.2875 17.3332 0.561724 0.565617 12.6823 -28.1834 9.69342 0.867133 4.67276 10.7266 1.88966 0.0425267 -3.19422 1.8686 1.63348 
-12.6582 97.6784 -157.818 -120.505 -85.6522 -121.346 -170.197 1.97607 92.9723 -9.61197 12.1898 -2.76125 61.893 2.19182 6.08456 30.1904 0.986361 1.55963 172.07 2.35452 86.8404 -12.8039 -5.08007 -0.702561 66.1487 -3.01755 -1.62254 29.8216 0.18802 -2.45769 0.212446 6.94297 -89.7492 12.9868 0.542257 0.435546 1.31588 0.560902 0.411247 -21.2192 0.386282 0.578378 -1.20657 0.386289 0.578375 93.6744 -48.8935 -95.3558 32.016 -8.89721 3.09729 -6.46481 -27.108 -39.8103 -4.00638 -0.85783 7.46252 -98.9428 -49.6888 65.4273 -23.4189 17.2671 0.618409 0.658146 12.8312 -28.1432 9.76038 0.884686 4.78658 10.5152 1.78983 0.143998 -2.9903 1.7501 1.43247 
-12.6303 97.6704 -157.833 -119.815 -85.5657 -120.544 -170.217 2.08494 93.0156 -9.84214 12.085 -2.69908 62.0367 2.24963 6.17217 30.2145 1.00916 1.51987 172.15 2.26724 86.9422 -12.6111 -5.07187 -0.72143 66.1158 -3.03538 -1.63683 29.8153 0.188817 -2.47486 0.22374 6.94381 -89.7644 12.9852 0.557384 0.403359 1.31432 0.574599 0.378434 -21.2209 0.410391 0.552234 -1.20827 0.410386 0.552226 93.6992 -48.7967 -95.3334 32.2044 -8.908 3.0713 -6.5497 -26.9865 -39.8352 -4.11867 -0.850764 7.11299 -98.7413 -49.7752 65.7515 -23.3282 17.2701 0.462639 0.530897 12.6919 -28.0007 9.63111 0.892507 4.95962 10.4944 1.84142 0.106974 -2.95421 1.81055 1.53888 
-12.653 97.6676 -157.861 -122.46 -85.3806 -123.521 -170.246 1.57241 92.7938 -9.47434 11.8486 -2.77554 61.9755 2.26857 5.88442 29.9597 0.80114 1.53577 171.92 2.21364 86.578 -12.9218 -5.27323 -0.744546 66.4789 -3.14166 -1.68593 29.393 0.169453 -2.34826 0.215891 6.97953 -89.7364 12.9136 0.555118 0.459982 1.24266 0.574826 0.435098 -21.2924 0.391205 0.605548 -1.27974 0.391212 0.605548 93.7458 -48.702 -95.2762 32.1385 -8.94271 2.90834 -6.70293 -27.2775 -39.9009 -3.92406 -0.847107 7.2845 -98.6278 -49.8495 65.9428 -23.3455 17.3409 0.4464 0.418036 12.4109 -28.0646 9.75312 0.893857 4.87837 10.6733 1.94084 0.157387 -3.29112 1.89151 1.44803 
-12.5887 97.6592 -157.848 -120.123 -85.5699 -120.943 -170.201 2.10794 92.9375 -9.94306 12.2619 -2.79024 62.105 2.31382 6.48217 29.9783 0.843172 1.2206 172.088 2.45756 86.8244 -12.9845 -5.20415 -0.72323 66.2559 -3.04255 -1.63335 29.8149 0.20128 -2.70028 0.227398 6.94213 -89.7596 12.9885 0.566945 0.41178 1.31764 0.584517 0.386418 -21.2176 0.416969 0.563124 -1.20494 0.416979 0.563129 93.8441 -48.8267 -95.101 32.0953 -8.92648 2.85643 -6.72291 -27.3451 -39.7368 -3.88316 -0.838239 7.12078 -98.7611 -49.7442 65.7118 -23.3663 17.377 0.634293 0.358763 12.2321 -28.2019 10.2514 0.917386 4.72342 10.598 1.83348 0.073621 -3.34331 1.80312 1.46328 
-12.562 97.672 -157.92 -127.458 -85.8194 -128.704 -170.47 1.552 92.5103 -9.4679 11.8761 -2.67003 62.0049 2.32457 5.53413 29.9361 0.766851 1.71046 171.706 2.32368 86.2931 -13.2207 -4.88947 -0.642477 66.511 -3.07993 -1.64847 29.6399 0.166479 -2.16845 0.165769 6.97271 -89.7103 12.9271 0.468104 0.522647 1.25618 0.49065 0.501542 -21.2785 0.289389 0.639169 -1.26579 0.289392 0.639171 93.7448 -48.9953 -95.2287 31.9835 -8.92454 2.91481 -6.29907 -26.9699 -39.5604 -4.19298 -0.840294 6.77628 -98.7181 -49.661 65.7449 -23.4508 17.3148 0.545015 0.493208 12.5226 -28.0992 9.86095 0.890637 4.76586 10.2052 1.80549 -0.0480534 -3.07618 1.80546 1.52444 
-12.55 97.6743 -157.943 -128.162 -85.7343 -129.478 -170.447 1.36937 92.4725 -9.23818 12.1026 -2.73049 61.8127 2.28889 5.94031 29.8926 0.766619 1.30581 171.703 2.30769 86.2314 -13.3214 -4.98283 -0.710589 66.4975 -3.08318 -1.64938 29.6686 0.171586 -2.24445 0.168967 6.98638 -89.7056 12.8998 0.476673 0.531086 1.22885 0.499583 0.509592 -21.3058 0.29502 0.649795 -1.29312 0.295025 0.649792 93.8184 -49.0052 -95.112 31.9848 -8.87334 2.8664 -6.6102 -27.104 -39.6587 -3.89296 -0.819801 6.75388 -98.6641 -49.6782 65.8298 -23.3584 17.4365 0.470927 0.422042 12.4084 -28.1602 9.58243 0.862307 4.71085 10.261 1.78897 -0.0653367 -3.06372 1.7936 1.57542 
-12.5096 97.6528 -157.934 -126.404 -85.8772 -127.491 -170.399 1.83012 92.6531 -9.67914 12.2756 -2.72106 61.9727 2.29595 5.95105 30.1042 0.927972 1.42126 171.921 2.41863 86.5036 -13.2516 -4.89899 -0.749343 66.314 -3.0186 -1.6174 29.9176 0.205029 -2.71879 0.177444 6.96225 -89.7272 12.9481 0.483247 0.486893 1.27719 0.504212 0.46515 -21.2576 0.314572 0.609617 -1.24494 0.314579 0.609614 93.902 -49.0724 -94.9701 31.9495 -8.87498 2.82179 -6.75582 -27.2904 -39.6792 -3.94986 -0.825221 6.70684 -98.6412 -49.5579 65.821 -23.3568 17.6637 0.377893 0.213 12.3566 -28.0404 10.1439 0.902654 4.6693 10.1788 1.67529 -0.245957 -3.06198 1.72051 1.70954 
-12.4795 97.6722 -157.959 -127.593 -85.8137 -128.729 -170.477 1.66651 92.5432 -9.5934 12.1768 -2.66038 61.8865 2.2782 6.08616 29.9595 0.844214 1.0307 171.843 2.26646 86.4077 -13.1016 -4.85542 -0.737762 66.4043 -3.07267 -1.64882 29.5831 0.171528 -2.28815 0.165879 6.97024 -89.7111 12.9321 0.467984 0.520979 1.26112 0.490461 0.499874 -21.2735 0.289781 0.637538 -1.26085 0.289773 0.637536 93.8046 -49.261 -95.0908 31.811 -8.82857 2.77483 -6.63943 -27.2514 -39.6001 -3.90192 -0.820235 6.7008 -98.431 -49.476 66.0996 -23.4515 17.5869 0.346881 0.344512 12.515 -28.0325 9.95681 0.861232 4.42473 10.0631 1.63539 -0.56103 -3.08863 1.74725 1.92901 
-12.4733 97.6607 -157.971 -129.082 -85.8402 -130.402 -170.463 1.57246 92.4273 -9.5765 12.0664 -2.7513 61.9929 2.32009 5.62188 29.9102 0.75751 1.57534 171.747 2.43848 86.2167 -13.5416 -4.92627 -0.758113 66.4354 -3.03595 -1.62232 29.9839 0.199933 -2.59059 0.161945 6.97954 -89.6842 12.9133 0.473067 0.574374 1.24229 0.497884 0.552992 -21.2921 0.278572 0.689987 -1.2795 0.278574 0.689989 93.9336 -49.4349 -94.862 31.6161 -8.88573 2.68355 -7.00321 -27.5504 -39.8831 -3.64875 -0.810102 6.77845 -98.4348 -49.3844 66.0618 -23.3422 17.8612 0.207411 0.199227 12.6291 -28.0145 10.4793 0.925292 4.63195 10.1006 1.58307 -0.511038 -3.12394 1.68193 1.70161 
